<?xml version="1.0" standalone="no"?>
<!DOCTYPE svg PUBLIC "-//W3C//DTD SVG 20010904//EN"
 "http://www.w3.org/TR/2001/REC-SVG-20010904/DTD/svg10.dtd">
<svg version="1.0" xmlns="http://www.w3.org/2000/svg"
 width="500.000000pt" height="500.000000pt" viewBox="0 0 500.000000 500.000000"
 preserveAspectRatio="xMidYMid meet">

<g transform="translate(0.000000,500.000000) scale(0.100000,-0.100000)"
fill="#ffffff" stroke="none">
<path d="M2140 3394 c-271 -41 -474 -222 -541 -482 -37 -146 -20 -301 49 -442
49 -102 187 -241 285 -288 109 -53 162 -60 503 -67 347 -8 365 -5 404 57 25
40 22 108 -6 140 -40 44 -68 48 -346 48 -145 0 -291 4 -325 9 -132 19 -242 99
-298 216 -37 77 -47 216 -21 291 38 112 125 203 233 244 43 17 87 23 173 27
131 5 160 13 195 55 49 58 27 146 -45 183 -27 14 -188 19 -260 9z"/>
<path d="M2170 2858 c-61 -32 -87 -77 -72 -127 7 -20 25 -50 42 -66 l31 -30
327 -6 c204 -3 340 -10 360 -17 101 -34 205 -133 243 -230 32 -80 31 -204 0
-285 -30 -77 -94 -154 -160 -194 -97 -58 -144 -63 -590 -63 -346 0 -406 -2
-441 -16 -65 -26 -89 -98 -55 -164 32 -62 28 -61 553 -58 l477 3 70 28 c204
81 357 254 406 457 23 92 16 241 -14 335 -69 211 -237 375 -442 431 -48 13
-125 17 -375 21 -314 4 -315 4 -360 -19z"/>
</g>
</svg>
