<svg width="60" height="60" viewBox="0 0 60 60" fill="none" xmlns="http://www.w3.org/2000/svg">
<g clip-path="url(#clip0_15_214)">
<path d="M7.03932 0.642334C2.9609 0.642334 0 3.45571 0 7.32916C0 11.2013 2.90215 14.0121 6.89832 14.0121C8.97147 14.0121 10.7574 13.3397 12.0642 12.0682C13.3175 10.8475 14.0081 9.16471 14.0068 7.29914C13.9154 3.37999 11.0498 0.642334 7.03932 0.642334ZM10.2443 10.1974C9.43493 10.9846 8.27694 11.4011 6.89832 11.4011C4.37477 11.4011 2.61102 9.72739 2.61102 7.32916C2.61102 4.89177 4.39043 3.25336 7.03932 3.25336C9.62815 3.25336 11.3384 4.86566 11.3971 7.33047C11.3958 8.45582 10.9872 9.47281 10.2443 10.1974Z" fill="url(#paint0_linear_15_214)"/>
<path d="M1.25195 59.3577H12.9859V16.217H1.25195V59.3577ZM3.86298 18.8281H10.3749V56.7453H3.86298V18.8281Z" fill="url(#paint1_linear_15_214)"/>
<path d="M43.9282 16.217C38.4868 16.217 35.1551 18.0957 33.2256 19.862L32.8588 16.217H19.583V59.3564H32.5846V36.6835C32.5846 35.707 32.9802 33.6796 33.2282 33.1443C34.7987 29.7617 36.9176 29.7617 40.1265 29.7617C43.8224 29.7617 46.9452 33.2279 46.9452 37.3298V59.359H60.0003V34.9851C60.0003 22.0892 51.6686 16.217 43.9282 16.217ZM57.3893 56.7466H49.5562V37.3285C49.5562 31.8101 45.2376 27.1494 40.1265 27.1494C36.8471 27.1494 33.1316 27.1494 30.8587 32.0451C30.39 33.0568 29.9723 35.4812 29.9723 36.6835V56.7466H22.194V18.8281H30.4971L31.0297 24.1076H33.1695L33.552 23.49C34.4228 22.0879 37.1761 18.8268 43.9282 18.8268C50.4114 18.8268 57.3893 23.8817 57.3893 34.9812V56.7466Z" fill="url(#paint2_linear_15_214)"/>
</g>
<defs>
<linearGradient id="paint0_linear_15_214" x1="7.00342" y1="0.642334" x2="7.00342" y2="14.0121" gradientUnits="userSpaceOnUse">
<stop stop-color="#C88BC4"/>
<stop offset="1" stop-color="#A7C5EC"/>
</linearGradient>
<linearGradient id="paint1_linear_15_214" x1="7.11892" y1="16.217" x2="7.11892" y2="59.3577" gradientUnits="userSpaceOnUse">
<stop stop-color="#C88BC4"/>
<stop offset="1" stop-color="#A7C5EC"/>
</linearGradient>
<linearGradient id="paint2_linear_15_214" x1="39.7917" y1="16.217" x2="39.7917" y2="59.359" gradientUnits="userSpaceOnUse">
<stop stop-color="#C88BC4"/>
<stop offset="1" stop-color="#A7C5EC"/>
</linearGradient>
<clipPath id="clip0_15_214">
<rect width="60" height="60" fill="white"/>
</clipPath>
</defs>
</svg>
