<svg width="60" height="59" viewBox="0 0 60 59" fill="none" xmlns="http://www.w3.org/2000/svg">
<g clip-path="url(#clip0_15_220)">
<path d="M58.6404 10.7709C57.6978 11.1763 56.7287 11.5184 55.7385 11.7962C56.9108 10.5106 57.8046 8.99782 58.3502 7.34246C58.4726 6.97141 58.3458 6.56526 58.0313 6.32259C57.7171 6.07972 57.2807 6.05063 56.9348 6.24939C54.8319 7.45882 52.5631 8.32798 50.1842 8.83623C47.7879 6.56564 44.5332 5.27344 41.1686 5.27344C34.0663 5.27344 28.2881 10.8763 28.2881 17.7632C28.2881 18.3056 28.3235 18.845 28.3936 19.3769C19.5804 18.6265 11.3869 14.426 5.76043 7.7334C5.55991 7.49486 5.25101 7.36629 4.93475 7.39088C4.6183 7.4149 4.33398 7.58795 4.17411 7.85389C3.03294 9.75269 2.42965 11.9244 2.42965 14.134C2.42965 17.1435 3.53772 19.9989 5.49507 22.2301C4.89991 22.0302 4.32236 21.7804 3.77114 21.4836C3.4752 21.3239 3.11404 21.3264 2.82004 21.4898C2.52585 21.6533 2.3414 21.954 2.33365 22.2826C2.3323 22.338 2.3323 22.3933 2.3323 22.4495C2.3323 26.9417 4.82559 30.986 8.63752 33.1904C8.31004 33.1587 7.98275 33.1127 7.65759 33.0524C7.32236 32.9903 6.97765 33.1042 6.75159 33.3522C6.52514 33.5999 6.45023 33.9452 6.55456 34.2606C7.96552 38.5322 11.5982 41.6742 15.9898 42.6322C12.3475 44.8444 8.18211 46.0031 3.80946 46.0031C2.89707 46.0031 1.97946 45.9512 1.0814 45.8481C0.635267 45.7967 0.208686 46.0521 0.0567507 46.4635C-0.0951848 46.8751 0.0658475 47.334 0.445396 47.5699C6.06275 51.0625 12.558 52.9086 19.2287 52.9086C32.3424 52.9086 40.5459 46.9121 45.1185 41.8816C50.8204 35.6091 54.0906 27.3065 54.0906 19.1031C54.0906 18.7604 54.0852 18.4143 54.0744 18.0693C56.324 16.4258 58.2608 14.4367 59.8369 12.1505C60.0763 11.8033 60.0504 11.3444 59.773 11.0248C59.496 10.705 59.0344 10.6016 58.6404 10.7709Z" fill="url(#paint0_linear_15_220)"/>
</g>
<defs>
<linearGradient id="paint0_linear_15_220" x1="30.0001" y1="5.27344" x2="30.0001" y2="52.9086" gradientUnits="userSpaceOnUse">
<stop stop-color="#C88BC4"/>
<stop offset="1" stop-color="#A7C5EC"/>
</linearGradient>
<clipPath id="clip0_15_220">
<rect width="60" height="58.1818" fill="white"/>
</clipPath>
</defs>
</svg>
